Patient4_TMGait_0pt2_03_right_09_EMG.mot
version=1
nRows=13
nColumns=33
inDegrees=no
endheader
time	1LAddLong	2LGlutMax	3LGlutMed	4LIliopsoas	5LSemiMemb	6LBicFemLong	7LRecFem	8LVastMed	9LVastLat	10LGasMed	11LTibAnt	12lTibPost	13LPeroneusLong	14LSol	15LExtDigLong	16LFlexDigLong	17RAddLong	18RGlutMax	19RGlutMed	20RIliopsoas	21RSemiMemb	22RBicFemLong	23RRecFem	24RVastMed	25RVastLat	26RGasMed	27RTibAnt	28RTibPost	29RPeroneusLong	30RSol	31RExtDigLong	32RFlexDigLong
20.685	0.004425	0.024261	-0.002899	-0.006256	-0.032654	-0.031128	-0.019684	-0.022278	-0.1358	0.036774	0.002747	0.015411	0.054016	0.00885	0.007324	0.00885	-0.00351	-0.010376	-0.067291	-0.091095	0.024261	0.002441	0.056305	-0.2301	-0.13184	-0.005798	-0.10986	-0.000305	-0.005798	0.08255	0.005798	-0.017242
20.686	0.023346	0.021057	0.01709	0	-0.041504	-0.020599	-0.093231	-0.007324	-0.12268	0.055542	0.025635	0.005493	0.053558	-0.016479	0.000458	0.021057	-0.016327	-0.004425	0.16602	-0.049744	0.038757	0.02121	-0.26657	-0.11765	-0.038605	-0.00351	0.098877	-0.00412	0.052795	0.09903	-0.004272	-0.016785
20.687	0.012512	0.032806	-0.005341	0.009003	-0.028992	0.00351	-0.093994	0.003204	-0.081024	0.071716	0.024719	0.016174	0.050354	-0.036621	0.000916	0.017548	-0.027161	-0.032501	0.34698	0.000153	0.043793	0.023041	-0.61905	-0.006104	0.13534	-0.010071	0.00412	-0.007629	0.10727	0.10254	-0.004425	-0.014648
20.688	0.00061	0.046844	0.012665	0.010223	0.023956	0.018158	-0.085602	0.007935	-0.064392	0.20752	0.008087	0.013123	-0.023651	-0.00412	0.001831	0.021515	-0.028381	-0.010376	0.049591	0.042877	0.020905	0.004425	-0.67719	0.030212	0.18356	-0.002899	-0.17059	-0.000153	0.25421	0.046539	-0.004883	-0.019226
20.689	-0.009918	0.034332	0.024567	0.006561	0.051117	0.033112	-0.081787	0.014954	-0.058441	0.25009	0.021667	0.012817	-0.068054	-0.010223	0.011292	0.023499	-0.014038	0.05722	-0.60989	-0.047913	0.0177	-0.020142	-0.7225	0.061493	0.26581	-0.001831	-0.09613	-0.003052	0.1918	0.005493	-0.001831	-0.012817
20.69	-0.014954	0.048828	0.035095	0.016174	-0.013733	0.033875	-0.032806	0.018158	0.046692	0.001068	0.00946	0.015564	-0.05249	-0.009155	0.003052	0.02182	0.014191	0.014038	-0.69916	-0.015411	0.001678	-0.03891	-0.35095	0.096741	0.16083	-0.000458	-0.054321	-0.005646	0.14252	-0.020599	-0.00473	-0.018463
20.691	-0.027161	-0.00824	-0.021057	0.014191	-0.057983	0.033417	0.040283	-0.000763	0.1178	-0.11993	-0.013428	0.010986	-0.033722	-0.028992	0.015259	0.020599	0.015717	0.089569	-0.28458	0.074615	0.001068	-0.043182	-0.099792	0.12512	0.13626	-0.004272	0.022583	0.005035	-0.037994	-0.01358	-0.004883	-0.016327
20.692	-0.024414	0.005035	-0.002899	0.007172	-0.10849	0.000763	0.051117	-0.004883	0.12528	-0.075378	0.01297	0.016937	-0.035858	-0.043182	-0.017395	0.014496	0.019989	0.010986	-0.027466	0.15213	-0.00824	-0.050201	-0.066223	0.000763	0.066376	-0.001373	0.02594	-0.001984	-0.056152	0.036163	0.001526	-0.010071
20.693	-0.010376	-0.000153	-0.015259	0.010986	-0.082092	-0.030212	0.033417	-0.007935	0.099792	-0.048676	0.010681	0.00885	-0.029449	-0.014343	-0.007019	0.019531	0.014038	-0.008087	-0.021515	0.10864	-0.009918	-0.046997	-0.12924	-0.000763	0.099182	-0.005341	0.042572	-0.002747	-0.103	0.029602	-0.003357	-0.011292
20.694	-0.005646	0.035706	0.021973	0.003662	-0.014648	-0.033875	0.031281	-0.001221	0.11002	-0.016632	-0.013428	0.010681	-0.018311	-0.003204	-0.011902	0.016479	0.008545	-0.011597	-0.098267	0.003204	-0.010071	-0.030975	-0.1857	-0.013428	0.097198	0.001526	0.10239	-0.00412	-0.12726	0.005341	-0.003662	-0.01709
20.695	-0.006256	0.016632	-0.012512	0.006104	0.028381	-0.00885	0.044556	0.002441	0.13016	-0.019226	0.001984	0.014343	-0.019073	-0.013885	-0.007019	0.008087	-0.005341	0.020752	-0.098724	-0.024872	0.002899	-0.019684	-0.13809	-0.001678	0.028992	0.011444	0.14221	-0.003052	-0.092926	-0.019226	-0.010376	-0.010529
20.696	0.012207	0.04425	-0.08606	-0.008392	0.017242	-0.015869	0.053101	-0.000916	0.12146	-0.021362	-0.003204	0.009003	-0.007019	-0.015717	0.002136	0.017395	-0.001831	-0.035553	-0.099182	0.029602	-0.003662	-0.02243	-0.11429	-0.03952	0.042267	0.000763	0.05249	-0.001373	-0.0177	0.005493	-0.001831	-0.012512
20.697	0.00473	0.037842	-0.11505	-0.010223	0.078888	-0.044098	0.036926	-0.007172	0.076752	-0.01358	0.002136	0.016022	-0.007629	-0.020905	0.002899	0.021057	0.002441	-0.053253	-0.05249	0.055237	-0.012817	-0.023041	-0.06073	-0.056	0.031586	0.003662	-0.001221	-0.001068	0.004883	-0.002747	-0.002441	-0.014801
